<?xml version="1.0" encoding="utf-8"?>
<!-- Generator: Adobe Illustrator 15.0.2, SVG Export Plug-In . SVG Version: 6.00 Build 0)  -->
<!DOCTYPE svg PUBLIC "-//W3C//DTD SVG 1.1//EN" "http://www.w3.org/Graphics/SVG/1.1/DTD/svg11.dtd">
<svg version="1.1" id="Layer_1" xmlns="http://www.w3.org/2000/svg" xmlns:xlink="http://www.w3.org/1999/xlink" x="0px" y="0px"
	 width="1326px" height="829px" viewBox="0 0 1326 829" enable-background="new 0 0 1326 829" xml:space="preserve">
<g>
	<path fill="#E3E5E4" d="M0,287.781v37.974c8.674,7.876,15.168,13.413,16.702,13.901C19.942,340.682,8.831,312.293,0,287.781z"/>
	<path fill="#E3E5E4" d="M0,534.412v38.502c8.815,8.013,15.433,13.662,16.983,14.156C20.258,588.106,8.874,559.099,0,534.412z"/>
	<path fill="#E3E5E4" d="M1326,200.685l-8.199,2.49l-188.527-100.7l97.347-99.962L1045.24,57.59l-6.055-3.234l-38.452,8.971
		L999.894,0H598.493l-16.728,31.316L549.607,0H274.048l57.347,37.134l-4.866,9.11l24.701,105.877L230.067,34.129L267.341,0H149.833
		l8.855,29.161l-17.294,16.405l-97.583,90.123l-32.604,30.634L0,155.408v101.794l39.533,130.185L0,424.532v67.914l55.896-51.175
		l2.518,8.292L55.39,564.191l-2.285,57.483l-9.575,8.843L0,671.418v67.928l50.257-46.013l-0.143,3.587l-2.135,68.545L46.014,829
		H113.3c-10.682-5.318-18.235-9.682-17.584-11.396l7.622-172.869l15.398-14.098l83.824-76.75l32.328,20.097l-4.351,164.957
		l-0.037,0.922l-37.447,72.731L208.616,829h73.547l-3.909-4.27l0.271-6.156l0.804-18.243l91.745-141.686l27.283,16.961
		l13.156,57.043l-1.648,0.528L407.336,829h122.5l-12.792-13.971l28.217-43.578l86.097-18.419l3.8,16.477L654.21,829h122.524
		l-12.277-13.409l54.612-84.34l34.935-0.463l7.521,23.486l181.109,4.777l132.729,5.274l68.545,2.136l68.564,2.121l0.01-0.024
		l0.008-0.026c4.635,1.064,9.293,0.648,13.51-0.92V661.724c-4.789,10.204-10.265,22.261-15.258,32.66l-271.404-144.97l67.569-69.386
		L1326,477.124v-22.305l-127.975-68.357L1326,255.05V200.685z M535.918,193.784l-27.691,44.543l-0.826-62.271L535.918,193.784z
		 M502.091,456.311l30.173,18.757l-49.748,11.475L502.091,456.311z M47.299,201.469l71.719-65.662l56.379-51.622l41.682,137.267
		l-75.403,71.528l-0.208,0.192L47.299,201.469z M141.113,540.395l-34.586,31.942l3.351-76.067l46.97,29.199L141.113,540.395z
		 M219.481,332.062l-28.657,9.177l-12.441-12.115l55.859-51.146l4.425,14.573l41.166,25.591L219.481,332.062z M286.532,636.828
		l1.01-22.928l8.597-1.839l4.232,2.631L286.532,636.828z M387.705,474.996l-115.149-59.287l-2.664,2.526l-10.76-10.478
		l122.648-26.24l26.866,16.701l7.354,31.52L387.705,474.996z M517.044,663.583l-21.746,42.234l-1.692,0.542l-17.181-80.304
		l45.614,29.536L517.044,663.583z M567.132,583.465l-35.016-21.891l52.495-11.23l0.87,3.771L567.132,583.465z M560.728,331.695
		l64.44-66.171l29.078,124.636L560.728,331.695z M716.657,756.984l-4.542-21.229l15.378-3.29l1.801-0.023L716.657,756.984z
		 M801.737,604.516L689.633,630.67l-13.215-61.77l28.711-44.341l16.554-3.542l35.4-36.352l27.9-0.37l24.77,107.398L801.737,604.516z
		 M792.745,236.775l0.232-0.003l-0.089,0.143L792.745,236.775z M769.549,117.262l55.107-56.589l9.677,41.475L769.549,117.262z
		 M872.509,491.313l-1.744-8.154l6.899-0.092L872.509,491.313z M1046.138,285.666l-10.578,17.016l-31.556,7.362l-1.008-76.056
		l223.071-2.958L1046.138,285.666z"/>
	<path fill="#E3E5E4" d="M0,820.839c3.493,3.168,6.626,5.951,9.209,8.161h6.877C13.57,819.836,6.262,800.739,0,783.393V820.839z"/>
</g>
</svg>
