<?xml version="1.0" encoding="utf-8"?>
<!-- Generator: Adobe Illustrator 16.0.4, SVG Export Plug-In . SVG Version: 6.00 Build 0)  -->
<!DOCTYPE svg PUBLIC "-//W3C//DTD SVG 1.1//EN" "http://www.w3.org/Graphics/SVG/1.1/DTD/svg11.dtd">
<svg version="1.1" xmlns="http://www.w3.org/2000/svg" xmlns:xlink="http://www.w3.org/1999/xlink" x="0px" y="0px" width="723px"
	 height="372px" viewBox="0 0 723 372" enable-background="new 0 0 723 372" xml:space="preserve">
<g id="Layer_2">
</g>
<g id="Layer_1">
	<path d="M321.069,200.965c-11.251-15.961-26.915-13.465-38.768-3.697c-5.966,0.423-15.922,3.618-15.598,7.358
		c2.776,32.157-3.654,66.405-6.726,98.938h19.385c2.014-25.182,6.542-51.551,7.687-77.326c2.643-4.188,5.827-7.894,9.856-11.272
		c15.446-12.967,15.633,8.766,14.381,20.104c-0.992,8.975-1.1,17.503-2.458,26.419c-1.71,11.23-1.509,30.158-2.538,41.473
		c-0.019,0.193,0.027,0.411,0.042,0.603h17.579c2.057-20.273,4.407-40.319,6.645-60.574
		C332.196,228.153,329.754,213.288,321.069,200.965z"/>
	<path d="M336.174,303.405h10.304h10.303c0.002-0.066,0.015-0.134,0.028-0.196c0.01-0.063,0.019-0.126,0.014-0.189
		c-1.114-13.218-1.685-26.436-1.894-39.657c-0.209-13.222-0.056-26.44,0.28-39.659c0.115-0.284,0.218-0.58,0.297-0.886
		c0.079-0.306,0.138-0.623,0.169-0.953c0.339-3.706,2.741-13.13,5.925-19.298c3.183-6.168,7.147-9.078,10.606,0.238
		c2.058,5.536,3.013,11.574,3.46,17.68c0.447,6.106,0.387,12.28,0.405,18.088c0.038,10.857-0.857,21.653-1.846,32.441
		c-0.987,10.788-2.07,21.569-2.411,32.392h10.406h10.404c0.054-0.229,0.107-0.462,0.146-0.698c0.04-0.239,0.067-0.478,0.073-0.725
		c0.374-17.068,3.303-35.184,4.6-53.173c1.294-17.992,0.959-35.861-5.196-52.437c-2.542-6.845-6.849-11.24-12.227-13.582
		c-5.377-2.342-11.825-2.63-18.651-1.263c-0.855,0.172-1.673,0.393-2.461,0.644c-0.786,0.256-1.545,0.545-2.283,0.854
		c0.736-18.179,1.045-49.185,0.911-80.19c-0.134-31.007-0.715-62.017-1.756-80.207c-0.116-2.028-4.579-8.832-9.22-8.798
		c-4.644,0.029-9.467,6.899-9.279,10.178c2.124,37.065,0.535,88.389-0.929,139.709C334.891,215.039,333.553,266.355,336.174,303.405
		z"/>
	<g>
		<path d="M230.369,210.299c0,32.088,0,64.177,0,96.259c0,2.022,21.049-0.067,21.049-5.018c0-32.081,0-64.17,0-96.26
			C251.418,203.256,230.369,205.352,230.369,210.299L230.369,210.299z"/>
	</g>
	<g>
		<path d="M230.297,183.281c1.597,4.695,4.485,8.258,9.843,9.136c5.06,0.828,10.455-0.902,12.012-6.176
			c0.414-1.409-0.059-3.215-0.397-4.611c-1.282-5.304-6.711-8.172-11.919-8.025c-4.299,0.123-10.456,3.324-9.177,8.617
			c0.111,0.436,0.213,0.875,0.305,1.313c0.312,1.413-0.424,0.72,0.125-1.146c4.004-2.057,8.008-4.113,12.011-6.17
			c-0.019-0.01-0.04-0.01-0.058-0.013c2.338,1.245,4.675,2.487,7.012,3.734c2.011,2.425,1.167,1.765,0.69,0.615
			c-0.286-0.699-0.526-1.414-0.77-2.125c-0.759-2.232-3.586-4.044-5.611-4.871c-2.587-1.062-5.543-1.344-8.266-0.67
			c-2.286,0.568-4.514,1.866-5.722,3.955C229.087,179.079,229.523,181.01,230.297,183.281L230.297,183.281z"/>
	</g>
	<polygon points="319.014,321.395 327.084,321.395 327.084,353.353 330.75,353.353 330.75,321.395 338.82,321.395 338.82,318.188 
		319.014,318.188 	"/>
	<path d="M361.193,317.23c-4.062,0-7.158,1.523-9.203,4.53c-2.011,2.956-3.031,7.48-3.031,13.449c0,5.717,1.027,10.203,3.052,13.335
		c2.063,3.19,5.124,4.808,9.099,4.808c3.936,0,6.991-1.604,9.083-4.769c2.054-3.11,3.095-7.593,3.095-13.326
		c0-5.702-1.032-10.166-3.066-13.268C368.148,318.831,365.111,317.23,361.193,317.23z M361.11,350.146
		c-2.735,0-4.758-1.194-6.185-3.651c-1.453-2.499-2.189-6.279-2.189-11.237c0-4.884,0.729-8.634,2.164-11.15
		c1.408-2.47,3.467-3.67,6.293-3.67c2.751,0,4.77,1.186,6.17,3.624c1.426,2.486,2.149,6.253,2.149,11.196
		c0,5.002-0.736,8.795-2.188,11.271C365.896,348.963,363.863,350.146,361.11,350.146z"/>
	<path d="M404.811,341.225c0,2.888-0.57,5.086-1.695,6.534c-1.118,1.441-2.731,2.143-4.932,2.143c-2.226,0-3.883-0.704-5.066-2.151
		c-1.183-1.447-1.783-3.611-1.783-6.431v-23.844h-3.693v23.563c0,3.836,0.91,6.836,2.705,8.915c1.805,2.093,4.441,3.153,7.837,3.153
		c6.829,0,10.291-4.06,10.291-12.068v-23.563h-3.664V341.225z"/>
	<path d="M441.459,333.76c1.051-1.606,1.583-3.669,1.583-6.13c0-3.277-0.984-5.783-2.923-7.449
		c-1.908-1.639-4.928-2.472-8.978-2.472h-6.021v35.165h3.665v-14.928h4.403l7.572,14.928h4.137l-8.155-15.68
		C438.9,336.402,440.485,335.248,441.459,333.76z M439.322,327.723c0,2.363-0.62,4.153-1.84,5.324
		c-1.236,1.186-3.042,1.786-5.369,1.786h-3.327v-13.87h2.55c2.8,0,4.861,0.538,6.129,1.598
		C438.696,323.592,439.322,325.328,439.322,327.723z"/>
	<rect x="463.317" y="317.709" width="3.665" height="35.165"/>
	<path d="M503.186,342.09c0,1.274,0.042,2.792,0.122,4.524l-14.538-28.905h-4.278v35.165h3.609v-25.011
		c0-1.356-0.054-2.763-0.159-4.2l14.628,29.211h4.224v-35.165h-3.609V342.09z"/>
	<path d="M538.435,334.658v3.206h6.129v11.541c-1.715,0.492-3.784,0.741-6.155,0.741c-3.436,0-6.124-1.292-7.99-3.837
		c-1.893-2.583-2.853-6.301-2.853-11.052c0-4.86,0.95-8.603,2.823-11.122c1.848-2.484,4.62-3.745,8.241-3.745
		c2.281,0,4.692,0.673,7.166,2.001l0.367,0.197l1.848-2.847l-0.486-0.262c-2.772-1.493-5.766-2.25-8.895-2.25
		c-4.688,0-8.386,1.599-10.991,4.749c-2.591,3.135-3.904,7.586-3.904,13.23c0,5.625,1.269,10.096,3.771,13.29
		c2.523,3.221,6.107,4.853,10.653,4.853c3.358,0,6.643-0.518,9.763-1.54l0.335-0.11v-17.044H538.435z"/>
	<path d="M459.736,203.541c-8.625-9.164-20.542-12.583-31.873-11.132c0.126-0.71,0.245-1.41,0.358-2.096
		c0.703-4.294-18.38-2.198-19.021,1.719c-0.494,3.018-1.008,6.051-1.518,9.088c-3.867,3.207-7.163,7.214-9.553,11.976
		c-0.625,1.244,2.886,3.188,6.995,4.402c-3.621,26.454-3.657,52.574,15.677,74.292c15.895,17.846,45.253,18.214,55.885-4.652
		C489.327,259.958,479.202,224.226,459.736,203.541z M448.804,287.448c-10.714,1.934-22.361-12.911-26.014-33.157
		c-3.653-20.245,2.072-38.226,12.786-40.159c10.715-1.934,22.361,12.912,26.015,33.158
		C465.243,267.536,459.518,285.517,448.804,287.448z"/>
	<path d="M547.958,199.442c0-0.082-0.052-0.149-0.062-0.229h-11.773h-6.958l0.034,69.586c0.004,9.233-5.422,16.722-12.121,16.727
		h-1.347c-6.698,0.003-12.132-7.481-12.138-16.715l-0.033-69.598h-0.079h-19.195c1.625,33.988-12.08,104.959,35.347,105.56
		C557.415,305.251,548.199,220.054,547.958,199.442z"/>
	<path d="M676.151,281.838c-9.376,0-20.369-4.389-20.475-4.433c-7.922-3.293-13.823-10.27-18.038-21.334
		c-1.912-5.012-4.77-10.484-5.706-15.76c12.154-5.825,28.472-16.127,35.393-26.762c2.429-3.733,2.629-9.052,0.51-13.549
		c-4.427-9.399-14.837-15.237-27.166-15.237c-5.903,0-11.691,1.547-16.74,4.473c-14.986,8.687-15.782,28.699-13.662,44.396
		c-6.613,3.153-12.883,6.355-18.266,9.145c-0.57-0.499-1.142-0.997-1.712-1.493l-0.639-0.557
		c-4.865-4.207-8.142-7.521-10.956-11.085c-2.569-3.256-5.037-10.589-3.059-14.672c0.853-1.758,2.587-2.613,5.303-2.613
		c0.827,0,1.743,0.083,2.724,0.249c1.401,0.235,2.709,0.354,3.89,0.354c4.224,0,6.878-1.595,7.101-4.266
		c0.267-3.185-3.329-5.795-9.383-6.813c-2.875-0.483-5.751-0.729-8.55-0.729c-10.642,0-18.708,3.468-22.129,9.512
		c-2.187,3.862-3.479,10.655,2.784,21.089c3.519,5.869,8.851,10.376,14.026,14.752c1.58,1.336,3.199,2.704,4.747,4.102
		c-0.88,0.373-1.76,0.739-2.627,1.101c-6.491,2.702-13.203,5.496-18.644,10.335c-6.202,5.517-7.974,12.392-5.124,19.885
		c5.055,13.29,25.616,26.333,41.508,26.333c5.417,0,9.88-1.434,13.264-4.263c12.922-10.807,8.349-27.839,2.17-43.073
		c-0.89-2.193-2.043-4.301-3.506-6.405c3.542-1.726,6.941-3.362,10.308-4.964c0.693,2.608,1.447,5.156,2.205,7.455
		c6.968,21.148,21.207,34.554,42.32,39.848c7.265,1.819,13.906,2.743,19.743,2.743c0,0,0,0,0.001,0c1.132,0,2.25-0.035,3.325-0.104
		l2.361-0.156v-17.237L676.151,281.838z M635.896,216.233c-0.413,0.259-0.791,0.48-1.178,0.713c-0.22,0.133-0.457,0.281-0.667,0.405
		c-2.915,1.704-5.021,2.632-6.286,3.114c-0.358-1.159-0.526-2.4-0.504-3.68c0.022-1.279,0.235-2.599,0.642-3.915
		c1.016-3.297,3.142-6.263,5.986-8.353c1.136-0.833,2.349-1.501,3.603-1.982c1.243-0.479,2.515-0.773,3.784-0.871
		c0.323-0.026,0.644-0.039,0.961-0.039c1.51,0,2.938,0.282,4.243,0.839c1.184,0.502,2.22,1.207,3.092,2.102
		c-0.973,1.466-3.51,4.614-9.41,8.81C638.614,214.476,637.191,215.422,635.896,216.233z M589.621,289.312
		c-0.294,0.598-0.826,1.344-2.148,1.68c-0.441,0.111-0.969,0.177-1.605,0.177c-4.177,0-9.768-2.972-11.976-5.629
		c-2.433-2.927-2.392-6.163-1.929-8.363c0.992-4.714,4.745-9.533,9.127-11.72c1.572-0.785,3.153-1.575,4.735-2.363
		c1.298,2.633,2.485,5.511,3.4,8.433c1.098,3.507,1.806,7.076,1.846,10.362C591.104,284.626,590.674,287.168,589.621,289.312z"/>
	<path d="M120.4,176.659c-38.58,0-69.854,31.274-69.854,69.854c0,38.58,31.274,69.854,69.854,69.854
		c38.579,0,69.854-31.274,69.854-69.854C190.254,207.934,158.979,176.659,120.4,176.659z M119.84,247.965l-30.682-19.867
		l-12.44,11.39l-10.563,9.671c-0.454,0.204,2.599,7.258,2.139,7.112c-0.459-0.146-6.312-5.78-6.592-6.229
		c-0.302-0.488-0.386-1.049-0.278-1.559c0.108-0.511,0.408-0.974,0.874-1.266l-0.001-0.002l-0.001-0.002l4.115-3.868l4.115-3.866
		l8.034-7.42l10.822-10.266l12.245,6.305l19.276,12.05l31.574-7.366l26.945,14.393L119.84,247.965z"/>
</g>
</svg>
