<?xml version="1.0" encoding="utf-8"?>
<!-- Generator: Adobe Illustrator 16.0.4, SVG Export Plug-In . SVG Version: 6.00 Build 0)  -->
<!DOCTYPE svg PUBLIC "-//W3C//DTD SVG 1.1//EN" "http://www.w3.org/Graphics/SVG/1.1/DTD/svg11.dtd">
<svg version="1.1" id="Layer_1" xmlns="http://www.w3.org/2000/svg" xmlns:xlink="http://www.w3.org/1999/xlink" x="0px" y="0px"
	 width="400px" height="360px" viewBox="0 0 400 360" enable-background="new 0 0 400 360" xml:space="preserve">
<g>
	<path fill-rule="evenodd" clip-rule="evenodd" d="M258.647,178.165c-9.056-1.857-18.126-3.656-27.168-5.593
		c-9.703-2.081-19.427-4.099-29.038-6.552c-3.3-0.847-6.782-2.583-7.19-6.744c-0.414-4.219,2.896-6.414,5.861-7.963
		c7.824-4.097,15.749-8.092,23.941-11.354c11.264-4.479,22.812-8.231,34.221-12.344c0.746-0.268,1.497-0.854,1.963-1.497
		c0.584-0.804,0.868-2.611,1.294-2.616c2.568-0.024,5.144,0.327,7.695,0.694c0.048,0.004,0.193,2.171-0.299,2.537
		c-1.282,0.955-2.853,1.574-4.379,2.143c-15.648,5.833-31.417,11.361-46.91,17.576c-5.792,2.325-11.084,6.029-16.35,9.491
		c-3.243,2.131-3.14,4.659,0.439,6.108c4.917,1.992,10.163,3.281,15.367,4.434c14.283,3.162,28.684,5.83,42.9,9.269
		c4.895,1.187,8.522-1.066,12.519-2.434c5.983-2.047,11.842-4.477,17.663-6.959c1.753-0.751,3.122-2.353,4.813-3.309
		c3.295-1.87,6.591-3.817,10.101-5.18c1.27-0.492,3.154,0.59,4.757,0.957c-0.744,1.401-1.142,3.326-2.306,4.108
		c-2.789,1.87-6.004,3.089-8.9,4.816c-1.053,0.629-1.691,1.952-2.518,2.956c1.149,0.823,2.396,2.454,3.434,2.33
		c6.484-0.766,13.272-0.842,17.56-7.308c2.956-4.46,7.559-6.576,12.854-6.812c1.186-0.053,2.422,0.992,3.635,1.533
		c-0.538,1.104-0.802,2.563-1.671,3.247c-2.22,1.736-4.724,3.109-7.086,4.664c-0.753,0.497-1.426,1.114-2.781,2.19
		c4.424,1.125,7.81,0.766,11.269-0.555c8.661-3.304,17.233-6.961,26.113-9.539c8.481-2.46,17.325-3.646,26.259-2.987
		c3.747,0.278,7.879,0.648,9.454,4.597c1.562,3.917-1.797,6.495-4.188,8.91c-5.687,5.744-11.716,11.154-17.36,16.938
		c-4.977,5.101-8.233,11.208-9.394,18.363c-1.625,10.044,3.615,16.399,11.403,21.316c2.705,1.705,5.694,2.965,8.552,4.429
		c-0.064,0.339-0.131,0.68-0.197,1.019c-0.92,0-1.895,0.201-2.75-0.033c-7.52-2.058-14.196-5.551-19.521-11.424
		c-5.539-6.11-6.604-14.733-3.025-22.931c3.838-8.787,10.66-15.051,17.39-21.453c4.193-3.986,8.309-8.057,12.378-12.169
		c0.688-0.694,0.971-1.794,1.44-2.707c-1.042-0.498-2.107-1.471-3.117-1.411c-6.422,0.368-12.858,0.755-19.237,1.542
		c-10.08,1.246-19.466,4.847-28.682,8.984c-6.5,2.917-13.091,4.874-20.197,1.569c-1.242-0.576-3.16,0.108-4.712,0.445
		c-4.462,0.961-8.855,2.376-13.358,2.982c-3.858,0.516-7.353-0.694-9.354-4.615c-0.289-0.562-1.69-1.098-2.29-0.878
		c-6.203,2.305-12.353,4.768-19.363,7.523c4.008,1.669,7.134,3.113,10.357,4.295c11.114,4.067,21.13,10.01,29.891,17.914
		c4.714,4.249,8.334,9.271,7.832,16.217c-0.363,5.035-2.494,9.263-5.784,12.878c-7.575,8.321-17.701,12.124-28.029,15.601
		c-13.002,4.381-26.488,5.696-40.025,5.821c-14.502,0.129-28.919-1.54-41.971-8.532c-4.52-2.425-8.504-6.056-12.27-9.621
		c-2.975-2.813-2.98-8.683,0.198-12.092c4.359-4.674,9.116-9.082,14.19-12.966c14.09-10.778,30.301-17.764,46.282-25.119
		c2.549-1.172,5.048-2.454,7.568-3.683C258.763,178.837,258.705,178.502,258.647,178.165z M245.117,248.052
		c4.465-0.372,10.006-0.898,15.554-1.29c16.021-1.125,30.508-6.457,43.26-16.176c4.766-3.635,9.068-7.605,8.938-14.693
		c-0.128-7.176-4.076-11.895-8.921-16.005c-10.07-8.549-22.326-13.169-34.414-17.923c-2.063-0.813-5.142-0.596-7.186,0.358
		c-12.966,6.036-25.796,12.363-38.621,18.7c-8.752,4.324-16.93,9.514-24.107,16.23c-7.497,7.014-6.917,15.052,1.937,20.138
		C214.676,244.92,229.134,247.406,245.117,248.052z"/>
	<path fill-rule="evenodd" clip-rule="evenodd" d="M5.988,169.262c-0.677-0.373-1.293-0.712-1.908-1.052
		c0.392-0.679,0.636-1.755,1.206-1.97c3.37-1.262,6.77-2.487,10.239-3.429c22.983-6.232,45.935-12.59,69.002-18.504
		c15.751-4.037,31.63-7.612,47.53-11.039c16.426-3.54,32.91-6.842,49.434-9.891c14.049-2.592,28.172-4.811,42.3-6.949
		c12.18-1.846,24.413-3.343,36.624-4.988c6.373-0.86,12.743-1.771,19.133-2.506c1.038-0.12,2.169,0.574,3.26,0.895
		c-0.954,0.555-1.854,1.449-2.87,1.612c-7.869,1.239-15.772,2.267-23.643,3.501c-10.015,1.568-20.018,3.224-30.011,4.926
		c-19.811,3.367-39.668,6.504-59.399,10.287c-16.091,3.085-32.062,6.811-48.021,10.541c-18.284,4.271-36.532,8.719-54.728,13.358
		c-15.878,4.051-31.654,8.494-47.49,12.712C13.17,167.693,9.638,168.413,5.988,169.262z"/>
	<path fill-rule="evenodd" clip-rule="evenodd" d="M190.212,183.117c2.245,0,4.522-0.22,6.725,0.089
		c1.155,0.16,2.183,1.241,3.267,1.905c-1.021,0.627-2.038,1.77-3.071,1.784c-3.472,0.043-6.952-0.457-10.429-0.464
		c-2.291-0.002-4.868-0.101-6.825,0.856c-9.111,4.448-18.485,7.243-28.75,6.327c-5.113-0.454-10.044-1.87-12.711-6.347
		c-1.788-3.001-1.91-6.982-2.883-10.496c-0.378-1.355-1.053-2.633-1.59-3.945c-1.347,0.59-2.884,0.935-4.008,1.81
		c-4.13,3.224-8.081,6.672-12.194,9.919c-1.174,0.923-2.602,1.744-4.034,2.058c-1.107,0.243-2.704-0.039-3.506-0.742
		c-0.485-0.431-0.258-2.391,0.313-3.173c2.836-3.869,5.888-7.581,8.872-11.337c4.75-5.979,9.836-11.708,12.115-19.303
		c0.311-1.038,2.807-2.205,4.08-1.999c2.162,0.35,1.688,2.248,1.028,3.945c-2.702,6.969-7.506,12.507-12.155,18.16
		c-0.538,0.655-1.012,1.368-1.176,2.444c2.2-1.554,4.335-3.209,6.612-4.639c5.654-3.549,10.323-1.167,10.85,5.61
		c0.811,10.472,3.924,14.065,16.302,13.879c7.124-0.104,14.044-2.09,20.319-5.71c1.052-0.607,2.391-1.611,2.595-2.631
		c0.896-4.479,4.015-7.102,7.647-8.853c3.164-1.52,6.755-2.434,10.256-2.898c2.843-0.38,3.903,1.684,2.054,3.936
		c-2.04,2.487-4.656,4.515-7.083,6.672c-0.864,0.765-1.916,1.325-2.879,1.975C190.038,182.34,190.126,182.729,190.212,183.117z"/>
	<path fill-rule="evenodd" clip-rule="evenodd" d="M74.486,209.293c2.286-3.468,4.326-7.06,6.834-10.28
		c8.583-11.012,17.39-21.85,25.965-32.864c1.997-2.566,3.422-5.577,5.101-8.389c0.28-0.466,0.395-1.112,0.785-1.42
		c1.349-1.067,3.417-3.167,4.075-2.802c2.379,1.305,0.968,3.539-0.1,5.045c-6.555,9.254-13.127,18.5-19.939,27.562
		c-3.996,5.316-8.544,10.211-12.655,15.444c-2.207,2.812-3.965,5.973-6.036,8.899c-0.492,0.698-1.425,1.082-2.155,1.609
		C75.863,211.354,75.366,210.608,74.486,209.293z"/>
</g>
</svg>
